<?xml version="1.0" encoding="UTF-8" standalone="no"?>
<svg
   xmlns:dc="http://purl.org/dc/elements/1.1/"
   xmlns:cc="http://creativecommons.org/ns#"
   xmlns:rdf="http://www.w3.org/1999/02/22-rdf-syntax-ns#"
   xmlns:svg="http://www.w3.org/2000/svg"
   xmlns="http://www.w3.org/2000/svg"
   viewBox="0 0 424.34668 424.34668"
   height="424.34668"
   width="424.34668"
   xml:space="preserve"
   id="svg2"
   version="1.1"><metadata
     id="metadata8"><rdf:RDF><cc:Work
         rdf:about=""><dc:format>image/svg+xml</dc:format><dc:type
           rdf:resource="http://purl.org/dc/dcmitype/StillImage" /></cc:Work></rdf:RDF></metadata><defs
     id="defs6" /><g
     transform="matrix(1.3333333,0,0,-1.3333333,0,424.34667)"
     id="g10"><g
       transform="scale(0.1)"
       id="g12"><path
         id="path14"
         style="fill:#cf103e;fill-opacity:1;fill-rule:evenodd;stroke:none"
         d="m 2950.87,1591.34 c 173.92,150.4 241.46,401.23 148.82,624.81 -92.63,223.54 -317.68,353.18 -546.99,336.53 16.64,229.34 -113.03,454.42 -336.62,547.03 -223.53,92.63 -474.37,25.13 -624.77,-148.77 -150.39,173.9 -401.18,241.4 -624.79,148.77 C 742.941,3007.1 613.305,2782.02 629.949,2552.71 400.625,2569.33 175.539,2439.69 82.9336,2216.11 -9.65625,1992.53 57.7969,1741.74 231.719,1591.34 57.7969,1440.9 -9.69922,1190.08 82.9336,966.488 175.5,743 400.457,613.359 629.746,629.93 613.141,400.539 742.777,175.371 966.484,82.6914 1190.13,-9.94141 1441,57.5898 1591.48,231.59 1741.88,57.8008 1992.63,-9.62109 2216.12,82.9297 2439.67,175.57 2569.3,400.621 2552.7,629.93 c 229.31,-16.61 454.39,113.031 547.03,336.601 92.6,223.589 25.06,474.369 -148.86,624.809 v 0" /><path
         id="path16"
         style="fill:#ffffff;fill-opacity:1;fill-rule:evenodd;stroke:none"
         d="m 2854.11,1591.34 c 164.32,138.62 228.62,373.2 142.14,581.96 -86.47,208.75 -297.83,329.18 -512.04,310.99 18.21,214.18 -102.22,425.5 -310.97,511.98 -208.77,86.46 -443.35,22.16 -581.93,-142.16 -138.61,164.36 -373.16,228.66 -581.93,142.16 C 800.613,2909.79 680.188,2698.44 698.387,2484.24 484.188,2502.44 272.852,2382.01 186.336,2173.3 99.875,1964.5 164.164,1729.88 328.539,1591.34 164.207,1452.72 99.875,1218.14 186.336,1009.33 272.852,800.621 484.23,680.172 698.387,698.359 680.188,484.148 800.613,272.809 1009.38,186.328 1218.15,99.8711 1452.74,164.16 1591.31,328.52 1729.89,164.199 1964.47,99.8711 2173.27,186.328 c 208.72,86.524 329.19,297.863 310.98,512.031 214.21,-18.148 425.53,102.301 512,311.021 86.48,208.76 22.23,443.34 -142.14,581.96 v 0" /><path
         id="path18"
         style="fill:#fff200;fill-opacity:1;fill-rule:evenodd;stroke:none"
         d="m 2812.13,1591.34 c 138.66,140.9 188.1,356.8 107.89,550.41 -80.19,193.6 -267.77,311.34 -465.49,312.88 -1.54,197.63 -119.28,385.22 -312.86,465.4 -193.61,80.21 -409.47,30.79 -550.36,-107.87 -140.84,138.66 -356.75,188.08 -550.38,107.87 C 847.246,2839.81 729.543,2652.26 728.043,2454.59 530.371,2453.05 342.789,2335.35 262.613,2141.75 182.402,1948.09 231.801,1732.19 370.48,1591.3 231.832,1450.41 182.402,1234.5 262.566,1040.94 342.789,847.34 530.414,729.602 728.078,728.039 729.617,530.379 847.367,342.781 1040.97,262.57 c 193.59,-80.172 409.5,-30.769 550.38,107.918 140.85,-138.66 356.71,-188.09 550.32,-107.918 193.62,80.211 311.36,267.809 312.89,465.508 197.69,1.563 385.23,119.262 465.46,312.862 80.21,193.6 30.77,409.51 -107.89,550.4 v 0" /><path
         id="path20"
         style="fill:#cf103e;fill-opacity:1;fill-rule:evenodd;stroke:none"
         d="m 1791.5,517.059 h 9.52 c 11.1,0 18.63,0.281 22.36,0.812 3.79,0.527 6.95,2.149 9.55,4.859 2.6,2.782 3.89,6.192 3.89,10.239 0,4.082 -1.42,7.531 -4.18,10.199 -2.79,2.684 -6.12,4.262 -10.08,4.754 -3.92,0.488 -11.12,0.68 -21.54,0.68 h -9.52 v -31.543 z m -23.47,-65.629 v 115.511 h 23.47 c 23.56,0 38.59,-0.332 44.87,-1.101 6.34,-0.809 12.15,-4.031 17.44,-9.75 5.27,-5.719 7.91,-13.039 7.91,-21.942 0,-8.636 -2.85,-15.828 -8.56,-21.507 -5.78,-5.743 -13.28,-9.309 -22.59,-10.68 4.06,-1.391 7.51,-3.449 10.32,-6.191 2.76,-2.75 7.51,-9.77 14.14,-21.02 l 13.68,-23.32 h -29.03 l -9.64,18.718 c -5.77,11.332 -10.8,18.891 -15.01,22.821 -4.24,3.89 -10.04,5.902 -17.4,5.902 h -6.13 V 451.43 h -23.47 z m 49.35,145.8 c -23.45,0 -43.84,-8.359 -61.29,-25.101 -17.42,-16.688 -26.16,-37.57 -26.16,-62.43 0,-24.23 8.54,-44.988 25.67,-62.051 17.09,-17.136 37.69,-25.66 61.78,-25.66 24.04,0 44.66,8.563 61.77,25.832 17.21,17.129 25.79,37.809 25.79,61.879 0,24.86 -8.73,45.742 -26.15,62.43 -17.48,16.742 -37.94,25.101 -61.41,25.101 z m -0.12,21.372 c 17.58,0 34.64,-4.231 51.05,-12.723 16.48,-8.41 30.16,-21.289 41.25,-38.539 11.02,-17.301 16.53,-36.551 16.53,-57.641 0,-29.969 -10.66,-55.59 -31.96,-76.918 -21.36,-21.312 -46.99,-32 -76.87,-32 -30.07,0 -55.74,10.649 -77.01,31.828 -21.29,21.25 -31.93,46.961 -31.93,77.09 0,21 5.53,40.153 16.42,57.313 10.95,17.218 24.68,30.09 41.02,38.679 16.4,8.61 33.53,12.911 51.5,12.911 z m 852.12,840.418 c -49.47,-22.86 -77.77,-74.56 -72.87,-129.23 9.96,-110.15 40.65,-247.55 -56.36,-330.72 -55.66,-47.718 -129.31,-68.449 -200.96,-49.992 -33.6,8.684 -68.07,37.891 -72.87,73.962 -3.2,24.02 1.7,47.79 14.86,65.34 13.65,18.19 33.32,30.74 55.49,32.36 8.64,0.61 21.84,-0.61 31.19,-8.44 -18.68,-17.67 -35.91,-47.93 -23.93,-73.87 6.71,-14.42 21.29,-22.1 36.72,-21.3 14.9,0.78 29.95,7.08 38.82,19.72 37.69,53.68 30.92,127.48 48.87,189.76 11.81,40.96 26.88,80.03 41.54,119.14 1.88,5.07 -0.53,10.8 -5.39,11.7 -16.16,2.96 -30.13,-14.5 -38.79,-23.97 L 2205.68,1049.6 C 2149.8,988.59 2080.4,931.441 1992.51,949.078 c -28.61,5.75 -52.15,26.602 -64.37,54.252 l -79.26,-172.908 c 47.57,-22.242 143.14,-41.981 197.48,-46.481 81.99,-6.882 165.58,-9.07 244.94,5.637 32.06,5.891 62.75,16.981 90.41,35.094 -3.66,-26.082 -23.81,-55.473 -26.61,-59.063 C 2207.28,578.551 1953.68,612.488 1744.67,656.648 1698.4,599.699 1643.95,552.281 1580.39,523.18 c -107.1,-49 -249.69,-48.559 -350.42,12.711 -50.36,30.718 -79.61,84.898 -75.5,145.738 5.48,81.75 79.93,148.961 150.48,173.371 127.89,44.148 275.52,37.531 405.68,9.91 l 52.29,114.449 c -50,-27.609 -120.15,-60.757 -177.73,-31.339 -19.58,10.011 -25.02,30.332 -34.03,47.3 -46.8,-27.609 -95.41,-61.59 -155.28,-48.879 -38.34,8.149 -58.4,32.481 -65.51,68.669 -55.32,-47.321 -128.54,-93.938 -202.5,-62.309 -30.38,13.039 -41.43,45.14 -41.43,75.499 0,28.27 8.66,53.09 20.19,79.24 l 90.41,204.74 c 20.71,46.95 -54.96,52.84 -71.28,15.91 l -164.311,-371.569 -152.422,0.399 34.149,76.73 C 750.328,966.371 630.355,884.379 497.801,965.602 383.199,1035.75 375.598,1191.78 407.363,1312.28 c 41.637,157.67 189.121,304.24 350.45,341.37 74.277,17.09 160.3,10.11 210.582,-51.54 26.843,-33.04 32.855,-80.74 21.769,-121.82 -9.133,-33.9 -40.488,-65.75 -72.863,-80.32 -42.485,-19.04 -127.809,-21.74 -139.828,36.76 23.386,4.58 48.972,16.92 68.062,37.2 16.57,17.49 29.242,43.65 18.594,69.11 -8.524,20.4 -29.801,32.67 -52.629,30.35 -86.68,-8.86 -146.578,-91.64 -191.937,-158.48 -46.758,-68.91 -68.844,-150.56 -66.493,-239.84 1.336,-50.09 25.016,-102.83 73.918,-122.84 100.649,-41.17 201.45,32.24 272.688,107.74 l 226.084,506.47 149.05,0.61 -96.42,-225.58 c 51.62,33.8 121.03,66.6 179.72,24.97 23.27,-16.44 27.21,-49.22 18.64,-75.5 -32.41,-98.92 -84.39,-190.52 -122.86,-287.13 -5.53,-13.93 -8.07,-28.79 0,-40.37 7.88,-11.29 22.3,-14.69 36.14,-11.21 22.31,5.63 44.93,22.26 54.27,43.61 l 165.62,378.25 H 1658 l -154.17,-359.11 c -4.01,-9.43 -4.71,-24.41 1.06,-32.99 6.41,-9.5 17.54,-16.93 27.66,-15.91 15.91,1.62 31.97,9.55 38.83,24.98 l 169.15,383.03 h 150.77 l -170.55,-383.03 c -4.5,-10.2 -3.04,-20.4 1.62,-30.31 4.88,-10.31 15.41,-14.1 26.07,-13.84 21.25,0.48 47.29,6.09 56.83,27.71 l 176.64,398.25 h 137.11 c 0,0 -3.34,-20.11 -4.8,-27.65 42.01,29.24 101.86,59.25 153.19,28.71 72.67,-43.39 31.73,-195.98 27.58,-213.27 88.46,52.47 183.83,240.6 330.05,222.17 11.8,-1.53 30.74,-7.16 44.34,-23.81 z m -633.3,-379.13 c -13.36,-20.56 -70.17,-31.67 -70.17,0 v 17.53 l 106.84,239.83 c 6.57,14.78 22.43,20.56 37.78,22.34 12.22,1.38 23.43,-6.62 28.71,-15.95 6.38,-11.41 4.92,-29.34 1.05,-41.48 -24.73,-77.29 -62.31,-157.5 -104.21,-222.27 z M 1300.15,591.219 c -43.34,25.351 -48.45,82.851 1.09,106.902 50.49,24.481 110.72,19.25 165.88,14.899 45.89,-3.649 90.41,-13.848 133.45,-26.61 -59.7,-103.109 -190.85,-159.148 -300.42,-95.191 z m 1318.7,1233.121 c -15.99,-38.42 9.8,-58.77 47.86,-52.63 0.16,-26.24 -49.07,-46.63 -80.31,-53.73 -27.34,-6.21 -65.03,-9.23 -80.29,14.9 l -19.12,30.3 c -48.9,-36.72 -140.44,-67.3 -190.88,-20.18 -52.1,48.65 -28.09,120.34 -13.83,165.86 -88.83,-70.71 -163.41,-202.94 -292.47,-180.77 -22.49,3.9 -36.13,21.81 -50.52,37.2 -52.11,-85.57 -71.72,-220.34 -193.04,-241.93 -39.84,-7.12 -83.98,-2.66 -109.52,27.16 -3.15,18.4 23.3,7.67 35.07,12.72 68.69,29.44 96.68,135.33 125.5,201.32 -47.3,-32.94 -122.19,-61.82 -179.14,-29.04 -17.22,9.91 -32.41,28.92 -35.45,26.9 -42.16,-28.12 -115.84,-52.93 -167.18,-26.9 -17.78,9.06 -25.49,28.19 -32.4,45.21 -55.85,-33.48 -131.47,-75.38 -196.25,-32.94 -30.91,20.27 -42.56,59.46 -28.67,91.95 l 86.66,203.15 c 14.96,35.05 -50.52,41.22 -63.8,11.69 l -140.91,-312.63 -140.644,0.08 23.39,57.02 c -85.773,-58.33 -168.468,-97.61 -270.902,-58.7 -81.551,30.91 -128.738,117.34 -131.871,199.91 -5.895,155.19 69.613,295.74 199.91,389.24 82.363,59.1 205.098,93.58 297.777,32.45 33.86,-22.34 53.92,-60.15 51.04,-98.9 -3.5,-46.9 -31.5,-92.26 -74.958,-115.38 -33.8,-18.03 -116.972,-14.78 -124.449,32.41 39.602,22.59 101.902,60.64 82.938,115.38 -5.649,16.42 -22.371,22.83 -36.676,23.93 -83.254,6.42 -145.848,-79.73 -181.867,-144.11 -48.664,-86.94 -101.496,-208.45 -39.321,-306.79 25.637,-40.53 75.5,-51.05 124.403,-42.56 61.129,10.59 134.027,40.04 161.086,99.58 l 206.574,455 h 137.49 l -99.75,-232.19 c 39.31,25.38 100.03,70.55 161.44,34.41 59.34,-34.93 10.64,-107.23 -9.02,-152.06 l -63.8,-145.73 c -5.61,-12.75 -8.69,-28.56 -2.67,-42.52 16.92,-39.27 75.28,-9.79 86.66,15.96 l 144.02,326.58 h 138.48 l -139.46,-315.41 c -4.15,-9.43 -6.42,-23.43 -1.05,-33.51 6.82,-12.79 22.81,-16.04 35.08,-11.7 24.58,8.69 48.08,73.6 48.89,75.5 l 124.73,285.12 h 141.54 l -140.73,-319.15 c -5.07,-11.41 -5.27,-26.16 2.62,-37.2 6.48,-9.17 17.13,-14.25 27.65,-12.79 23.64,3.33 48.42,16.41 59,40.4 l 145.09,328.74 h 131.34 l -8.93,-25.1 c 44.02,17.38 100.91,46.09 143.57,11.21 57.42,-47.04 21.86,-143.01 5.88,-200.96 91.89,58.52 150.52,248.19 315.26,216.35 20.1,-3.85 39.91,-21.77 48.93,-41.46 l 16.62,39.96 h 138.45 c 0,0 -105.27,-240.92 -155.07,-360.62 z m -136.66,9.03 c -8.03,-18.28 -32.89,-26.97 -54.22,-17.55 -6.35,2.8 -13.8,10.07 -13.85,17.55 -0.44,64.36 32.57,122.41 60.64,178.12 15.15,30.18 34.31,74.24 72.85,78.19 29.59,3.04 37.49,-22.88 27.68,-45.2 l -93.1,-211.11 z M 2011.1,1818.5 c -13.32,-7.2 -32.94,-0.58 -36.19,13.81 -2.92,12.91 4.07,27.45 9.59,39.88 l 85.62,193.56 c 12.38,28.03 60.39,31.36 64.33,6.38 9.43,-59.58 -70.32,-224.96 -123.35,-253.63 v 0" /><path
         id="path22"
         style="fill:#937b41;fill-opacity:1;fill-rule:evenodd;stroke:none"
         d="M 3061.6,982.281 C 2969.16,759.199 2734.12,637.191 2505.38,677.301 2545.46,448.551 2423.47,213.418 2200.37,121.031 1977.18,28.6406 1724.7,108.602 1591.31,298.68 1457.94,108.602 1205.44,28.6406 982.324,121.031 759.191,213.418 637.23,448.512 677.309,677.25 448.512,637.141 213.438,759.16 121.035,982.238 28.6016,1205.43 108.52,1457.93 298.68,1591.34 108.563,1724.72 28.6016,1977.17 121.035,2200.31 c 92.403,223.13 327.516,345.14 556.274,305.01 -40.161,228.78 81.882,463.86 305.015,556.25 223.116,92.47 475.656,12.5 609.026,-177.61 133.39,190.11 385.83,270.08 608.97,177.61 223.19,-92.39 345.14,-327.47 305.02,-556.25 228.74,40.13 463.86,-81.88 556.26,-304.98 92.39,-223.13 12.43,-475.62 -177.65,-609 190.08,-133.45 270.04,-385.91 177.65,-609.059 z m 76.27,1249.669 c -93.36,225.4 -312,362.31 -542.21,363.77 -1.42,230.16 -138.33,448.75 -363.72,542.16 -225.47,93.33 -476.83,35.57 -640.63,-126.15 -163.79,161.72 -415.15,219.48 -640.583,126.11 C 725.27,3044.47 588.363,2825.88 586.902,2595.72 356.723,2594.22 138.137,2457.31 44.7656,2231.91 -48.6172,2006.5 9.17578,1755.14 170.91,1591.3 9.17578,1427.5 -48.5742,1176.11 44.7656,950.699 138.137,725.281 356.723,588.43 586.945,586.941 588.363,356.738 725.27,138.121 950.727,44.7617 1176.16,-48.6094 1427.56,9.17188 1591.35,170.91 1755.11,9.17188 2006.47,-48.5703 2231.94,44.8008 c 225.39,93.3672 362.26,311.9372 363.72,542.1402 230.21,1.45 448.85,138.34 542.21,363.758 93.37,225.451 35.58,476.801 -126.15,640.681 161.73,163.8 219.52,415.16 126.15,640.57 v 0" /></g></g></svg>